<svg xmlns="http://www.w3.org/2000/svg" width="25" height="23" viewBox="0 0 25 23" fill="none">
<path fill-rule="evenodd" clip-rule="evenodd" d="M24.4406 11C24.4406 4.92487 19.1161 0 12.5479 0C5.9798 0 0.655273 4.92487 0.655273 11C0.655273 17.0751 5.9798 22 12.5479 22C13.9815 22 15.9508 21.5163 18.4559 20.5489L22.5067 22.0104L22.6268 22.0465C23.1504 22.1735 23.7054 21.92 23.9068 21.4422C23.9874 21.2511 24.0025 21.0418 23.9502 20.8425L22.8207 16.546L23.0056 16.1367C23.9623 13.9813 24.4406 12.2691 24.4406 11ZM21.4906 15.6004L21.1178 16.4169L22.1291 20.2641L18.4353 18.9313L17.4265 19.3183C15.299 20.1124 13.6556 20.5 12.5479 20.5C6.87546 20.5 2.277 16.2467 2.277 11C2.277 5.75329 6.87546 1.5 12.5479 1.5C18.2204 1.5 22.8189 5.75329 22.8189 11C22.8189 12.0455 22.3832 13.5952 21.4906 15.6004Z" fill="#262626"/>
</svg>