<svg xmlns="http://www.w3.org/2000/svg" width="24" height="24" viewBox="0 0 24 24" fill="none">
<path d="M12.0001 5.10645C12.3878 5.10645 12.7083 5.3946 12.759 5.76847L12.766 5.8724V11.2341H18.1277C18.5155 11.2341 18.836 11.5223 18.8867 11.8961L18.8937 12.0001C18.8937 12.3878 18.6055 12.7083 18.2317 12.759L18.1277 12.766H12.766V18.1277C12.766 18.5155 12.4779 18.836 12.104 18.8867L12.0001 18.8937C11.6123 18.8937 11.2918 18.6055 11.2411 18.2317L11.2341 18.1277V12.765L5.8724 12.766C5.48463 12.766 5.16416 12.4779 5.11344 12.104L5.10645 12.0001C5.10645 11.6123 5.3946 11.2918 5.76847 11.2411L5.8724 11.2341L11.2341 11.2331V5.8724C11.2341 5.51988 11.4723 5.22298 11.7964 5.13381L11.8961 5.11344L12.0001 5.10645Z" fill="white"/>
<path fill-rule="evenodd" clip-rule="evenodd" d="M24 6.89362C24 3.08638 20.9136 0 17.1064 0H6.89362C3.08638 0 0 3.08638 0 6.89362V17.1064C0 20.9136 3.08638 24 6.89362 24H17.1064C20.9136 24 24 20.9136 24 17.1064V6.89362ZM6.89362 1.53191H17.1064C20.0676 1.53191 22.4681 3.93243 22.4681 6.89362V17.1064C22.4681 20.0676 20.0676 22.4681 17.1064 22.4681H6.89362C3.93243 22.4681 1.53191 20.0676 1.53191 17.1064V6.89362C1.53191 3.93243 3.93243 1.53191 6.89362 1.53191Z" fill="white"/>
</svg>