<svg width="22" height="24" viewBox="0 0 22 24" fill="none" xmlns="http://www.w3.org/2000/svg">
<g id="Group 25">
<path id="Union" fill-rule="evenodd" clip-rule="evenodd" d="M11.2881 0C12.6764 0 13.802 0.895431 13.802 2V3.33426C16.949 4.18661 19.5739 6.6075 19.5739 9.99805V17.998V18.5H21C21.5523 18.5 22 18.9477 22 19.5C22 20.0523 21.5523 20.5 21 20.5H1C0.447715 20.5 0 20.0523 0 19.5C0 18.9477 0.447715 18.5 1 18.5H3.00431V17.998V9.99805C3.00431 6.60824 5.62803 4.18768 8.77414 3.33483V2C8.77414 0.895431 9.89966 0 11.2881 0ZM11.2891 4.99805C14.7601 4.99805 17.5739 7.23662 17.5739 9.99805V15.998V17.998H15.5739H7.00431H5.00431V15.998V9.99805C5.00431 7.23662 7.8181 4.99805 11.2891 4.99805Z" fill="#A6A6A6"/>
<path id="Subtract" d="M7.51758 21C7.51758 22.6569 9.20585 24 11.2884 24C13.371 24 15.0593 22.6569 15.0593 21H7.51758Z" fill="#A6A6A6"/>
</g>
</svg>
