<svg width="37" height="35" viewBox="0 0 37 35" fill="none" xmlns="http://www.w3.org/2000/svg">
<path id="Subtract" fill-rule="evenodd" clip-rule="evenodd" d="M7.70764 34.9995V28.9687C7.70764 25.4134 10.4686 22.5312 13.8743 22.5312H23.1243C26.5301 22.5312 29.291 25.4134 29.291 28.9687V35.0005C33.9597 31.4948 37 25.7742 37 19.3122C37 8.64637 28.7173 0 18.5 0C8.28273 0 0 8.64637 0 19.3122C0 25.7735 3.03966 31.4937 7.70764 34.9995ZM24.666 14.4843C24.666 18.0396 21.9051 20.9217 18.4993 20.9217C15.0936 20.9217 12.3326 18.0396 12.3326 14.4843C12.3326 10.929 15.0936 8.04688 18.4993 8.04688C21.9051 8.04688 24.666 10.929 24.666 14.4843Z" fill="black"/>
</svg>
