<svg width="24" height="24" viewBox="0 0 24 24" fill="none" xmlns="http://www.w3.org/2000/svg">
<g id="Vector">
<path d="M0 2.18182C0 0.976833 0.976833 0 2.18182 0H21.8182C23.0232 0 24 0.976833 24 2.18182C24 3.3868 23.0232 4.36364 21.8182 4.36364H2.18182C0.976833 4.36364 0 3.3868 0 2.18182Z" fill="#A6A6A6"/>
<path fill-rule="evenodd" clip-rule="evenodd" d="M2.18182 6.54492C0.976833 6.54492 0 7.52176 0 8.72674V21.8176C0 23.0226 0.976833 23.9995 2.18182 23.9995H21.8182C23.0232 23.9995 24 23.0226 24 21.8176V8.72674C24 7.52176 23.0232 6.54492 21.8182 6.54492H2.18182ZM7.09091 8.72674C6.18717 8.72674 5.45455 9.45936 5.45455 10.3631C5.45455 11.2668 6.18717 11.9995 7.09091 11.9995H16.9091C17.8128 11.9995 18.5455 11.2668 18.5455 10.3631C18.5455 9.45936 17.8128 8.72674 16.9091 8.72674H7.09091Z" fill="#A6A6A6"/>
</g>
</svg>
