<svg width="25" height="23" viewBox="0 0 25 23" fill="none" xmlns="http://www.w3.org/2000/svg">
<path fill-rule="evenodd" clip-rule="evenodd" d="M21.1814 1.13143C19.9734 -0.0025767 18.0149 -0.00258094 16.8069 1.13143L2.27011 14.7782C1.85134 15.1714 1.56159 15.6691 1.43529 16.2123L0.723898 19.2718C0.243222 21.339 2.20352 23.1793 4.40559 22.7281L7.66463 22.0602C8.24324 21.9417 8.77343 21.6697 9.19219 21.2765L23.729 7.62972C24.937 6.49571 24.937 4.65711 23.729 3.5231L21.1814 1.13143ZM13.0325 7.41247L3.72826 16.1471C3.58866 16.2782 3.49208 16.4441 3.44998 16.6251L2.73859 19.6846C2.57836 20.3737 3.2318 20.9871 3.96582 20.8367L7.22486 20.1689C7.41773 20.1294 7.59446 20.0387 7.73405 19.9076L17.0383 11.173L13.0325 7.41247Z" fill="white"/>
</svg>
