<svg width="18" height="18" viewBox="0 0 18 18" fill="none" xmlns="http://www.w3.org/2000/svg">
<circle cx="9" cy="9" r="9" fill="#A6A6A6"/>
<path d="M8.22816 14V7.45455H9.77077V14H8.22816ZM9.00373 6.52557C8.75941 6.52557 8.54918 6.4446 8.37305 6.28267C8.19691 6.1179 8.10884 5.92045 8.10884 5.69034C8.10884 5.45739 8.19691 5.25994 8.37305 5.09801C8.54918 4.93324 8.75941 4.85085 9.00373 4.85085C9.25089 4.85085 9.46112 4.93324 9.63441 5.09801C9.81055 5.25994 9.89862 5.45739 9.89862 5.69034C9.89862 5.92045 9.81055 6.1179 9.63441 6.28267C9.46112 6.4446 9.25089 6.52557 9.00373 6.52557Z" fill="white"/>
</svg>
