<svg width="25" height="25" viewBox="0 0 25 25" fill="none" xmlns="http://www.w3.org/2000/svg">
<g id="Group 104">
<path id="Rectangle 560" d="M5.05664 20.0195C5.05664 16.7058 7.74293 14.0195 11.0566 14.0195H13.0566C16.3703 14.0195 19.0566 16.7058 19.0566 20.0195V21.0195H5.05664V20.0195Z" fill="#A6A6A6"/>
<path id="Rectangle 561" d="M19.0566 20.0195C19.0566 21.6764 17.7135 23.0195 16.0566 23.0195H8.05664C6.39979 23.0195 5.05664 21.6764 5.05664 20.0195H19.0566Z" fill="#A6A6A6"/>
<path id="Ellipse 46" d="M16.0566 9.75304C16.0566 11.815 14.2658 13.4865 12.0566 13.4865C9.8475 13.4865 8.05664 11.815 8.05664 9.75304C8.05664 7.69108 9.8475 6.01953 12.0566 6.01953C14.2658 6.01953 16.0566 7.69108 16.0566 9.75304Z" fill="#A6A6A6"/>
<circle id="Ellipse 244" cx="12.0566" cy="12.0195" r="11.25" stroke="#A6A6A6" stroke-width="1.5"/>
</g>
</svg>
