<svg width="120" height="80" fill="none" xmlns="http://www.w3.org/2000/svg"><g filter="url(#a)"><path fill-rule="evenodd" clip-rule="evenodd" d="M89.306 18.238C88.8 13.635 82.734 10 75.326 10c-7.604 0-16.77 5.37-17.089 10.2h-.008c-.398 5.728-.155 9.785.115 14.279.088 1.473.18 2.994.251 4.635 11.339.96 17.853 1.018 29.017.052.196-.017.369-.045.52-.083 7.036-.139 13.591-4.38 14.84-8.779 1.382-4.865-3.203-11.11-11.037-11.969a19.203 19.203 0 0 0-2.629-.097z" fill="#5D8866"/></g><g filter="url(#b)"><path fill-rule="evenodd" clip-rule="evenodd" d="M23.266 20.395C15.853 20.709 10 24.477 10 29.078c0 4.721 8.643 10.413 16.42 10.613v.005c9.221.247 15.754.096 22.989-.071 2.373-.055 4.82-.112 7.464-.156 1.545-7.043 1.64-11.089.083-18.022a.969.969 0 0 0-.128-.313c-.212-4.373-7.045-8.451-14.134-9.227-7.834-.858-17.89 1.99-19.272 6.855a4.69 4.69 0 0 0-.156 1.633z" fill="#5D8866"/></g><g filter="url(#c)"><path fill-rule="evenodd" clip-rule="evenodd" d="M26.31 61.1c.729 4.463 6.692 7.943 13.94 7.943 7.41 0 16.302-5.1 17.047-9.83h.003c1.55-7.605.897-12.274-.366-18.913-11.064-.937-18.137-.342-28.846.585-6.89.28-13.234 4.447-14.46 8.767-1.382 4.866 3.346 10.491 11.18 11.349.489.053.99.086 1.502.1z" fill="#5D8866"/></g><g filter="url(#d)"><path fill-rule="evenodd" clip-rule="evenodd" d="M96.937 61.513c10.824-1.266 13.663-7.236 11.38-12.06-.259-4.518-12.183-9.746-19.91-9.772v-.005c-11.991-.292-19.31-.404-29.763.849-2.165 6.76-1.612 10.636.91 17.239.06.157.149.287.264.394 1.167 4.619 11.64 10.68 18.6 11.274 7.708.658 17.383-2.274 18.466-6.956a2.96 2.96 0 0 0 .053-.963z" fill="#5D8866"/></g><g filter="url(#e)"><path d="M24.121 20.527C38.705 26.242 44.77 30.1 55.477 38.422" stroke="#637D53" stroke-width="1.5"/></g><g filter="url(#f)"><path d="M60 38.423c15.048-7.258 24.379-11.264 28.813-19.65" stroke="#637D53" stroke-width="1.5"/></g><g filter="url(#g)"><path d="M59.719 41.227c14.574 9.121 35.053 19.496 36.722 20" stroke="#637D53" stroke-width="1.5"/></g><g filter="url(#h)"><path d="M27.514 60.174c10.321-9.882 15.095-14.307 27.965-19.299" stroke="#637D53" stroke-width="1.5"/></g><g filter="url(#i)" fill="#fff" fill-opacity=".7"><path d="M31.3 27.489h13.537v.968H31.301v-.968zm6.78 1.866c2.893 0 5.017.955 5.017 2.316 0 1.362-2.124 2.316-5.017 2.316-2.892 0-5.04-.954-5.04-2.316 0-1.361 2.148-2.316 5.04-2.316zm0 .983c-1.785 0-3.118.547-3.118 1.333 0 .786 1.333 1.334 3.118 1.334 1.763 0 3.119-.548 3.119-1.334s-1.356-1.333-3.119-1.333zm-.949-4.562h1.876v2.513H37.13v-2.513zM68.814 25.13h12.814v3.889H70.645v2.596H68.86v-3.537h10.982v-2.007H68.814v-.94zm.046 5.938h13.107v.968H68.859v-.968zM35.73 47.728h12.475v.954h-10.6v5.095H35.73v-6.05zm0 5.712h12.655v.955H35.73v-.955zM75.255 47.882c3.57 0 6.373 1.46 6.373 3.481 0 2.05-2.802 3.509-6.373 3.509-3.57 0-6.395-1.46-6.395-3.509 0-2.021 2.824-3.48 6.395-3.48zm0 .997c-2.576 0-4.565 1.052-4.565 2.484 0 1.46 1.989 2.512 4.565 2.512 2.553 0 4.565-1.052 4.565-2.512 0-1.432-2.011-2.484-4.565-2.484z"/></g><defs><filter id="a" x="48.02" y="0" width="65.197" height="49.863" filterUnits="userSpaceOnUse" color-interpolation-filters="sRGB"><feFlood flood-opacity="0" result="BackgroundImageFix"/><feColorMatrix in="SourceAlpha" values="0 0 0 0 0 0 0 0 0 0 0 0 0 0 0 0 0 0 127 0" result="hardAlpha"/><feOffset/><feGaussianBlur stdDeviation="5"/><feComposite in2="hardAlpha" operator="out"/><feColorMatrix values="0 0 0 0 0.376471 0 0 0 0 0.572549 0 0 0 0 0.490196 0 0 0 1 0"/><feBlend in2="BackgroundImageFix" result="effect1_dropShadow_912_2886"/><feBlend in="SourceGraphic" in2="effect1_dropShadow_912_2886" result="shape"/></filter><filter id="b" x="0" y="1.756" width="68.078" height="48.07" filterUnits="userSpaceOnUse" color-interpolation-filters="sRGB"><feFlood flood-opacity="0" result="BackgroundImageFix"/><feColorMatrix in="SourceAlpha" values="0 0 0 0 0 0 0 0 0 0 0 0 0 0 0 0 0 0 127 0" result="hardAlpha"/><feOffset/><feGaussianBlur stdDeviation="5"/><feComposite in2="hardAlpha" operator="out"/><feColorMatrix values="0 0 0 0 0.376471 0 0 0 0 0.572549 0 0 0 0 0.490196 0 0 0 1 0"/><feBlend in2="BackgroundImageFix" result="effect1_dropShadow_912_2886"/><feBlend in="SourceGraphic" in2="effect1_dropShadow_912_2886" result="shape"/></filter><filter id="c" x="3.389" y="29.828" width="64.816" height="49.215" filterUnits="userSpaceOnUse" color-interpolation-filters="sRGB"><feFlood flood-opacity="0" result="BackgroundImageFix"/><feColorMatrix in="SourceAlpha" values="0 0 0 0 0 0 0 0 0 0 0 0 0 0 0 0 0 0 127 0" result="hardAlpha"/><feOffset/><feGaussianBlur stdDeviation="5"/><feComposite in2="hardAlpha" operator="out"/><feColorMatrix values="0 0 0 0 0.376471 0 0 0 0 0.572549 0 0 0 0 0.490196 0 0 0 1 0"/><feBlend in2="BackgroundImageFix" result="effect1_dropShadow_912_2886"/><feBlend in="SourceGraphic" in2="effect1_dropShadow_912_2886" result="shape"/></filter><filter id="d" x="47.299" y="29.486" width="71.752" height="50.037" filterUnits="userSpaceOnUse" color-interpolation-filters="sRGB"><feFlood flood-opacity="0" result="BackgroundImageFix"/><feColorMatrix in="SourceAlpha" values="0 0 0 0 0 0 0 0 0 0 0 0 0 0 0 0 0 0 127 0" result="hardAlpha"/><feOffset/><feGaussianBlur stdDeviation="5"/><feComposite in2="hardAlpha" operator="out"/><feColorMatrix values="0 0 0 0 0.376471 0 0 0 0 0.572549 0 0 0 0 0.490196 0 0 0 1 0"/><feBlend in2="BackgroundImageFix" result="effect1_dropShadow_912_2886"/><feBlend in="SourceGraphic" in2="effect1_dropShadow_912_2886" result="shape"/></filter><filter id="e" x="19.848" y="15.828" width="40.09" height="27.186" filterUnits="userSpaceOnUse" color-interpolation-filters="sRGB"><feFlood flood-opacity="0" result="BackgroundImageFix"/><feBlend in="SourceGraphic" in2="BackgroundImageFix" result="shape"/><feGaussianBlur stdDeviation="2" result="effect1_foregroundBlur_912_2886"/></filter><filter id="f" x="55.674" y="14.422" width="37.803" height="28.676" filterUnits="userSpaceOnUse" color-interpolation-filters="sRGB"><feFlood flood-opacity="0" result="BackgroundImageFix"/><feBlend in="SourceGraphic" in2="BackgroundImageFix" result="shape"/><feGaussianBlur stdDeviation="2" result="effect1_foregroundBlur_912_2886"/></filter><filter id="g" x="55.32" y="36.59" width="45.338" height="29.355" filterUnits="userSpaceOnUse" color-interpolation-filters="sRGB"><feFlood flood-opacity="0" result="BackgroundImageFix"/><feBlend in="SourceGraphic" in2="BackgroundImageFix" result="shape"/><feGaussianBlur stdDeviation="2" result="effect1_foregroundBlur_912_2886"/></filter><filter id="h" x="22.994" y="36.176" width="36.756" height="28.539" filterUnits="userSpaceOnUse" color-interpolation-filters="sRGB"><feFlood flood-opacity="0" result="BackgroundImageFix"/><feBlend in="SourceGraphic" in2="BackgroundImageFix" result="shape"/><feGaussianBlur stdDeviation="2" result="effect1_foregroundBlur_912_2886"/></filter><filter id="i" x="29.301" y="23.131" width="54.666" height="33.74" filterUnits="userSpaceOnUse" color-interpolation-filters="sRGB"><feFlood flood-opacity="0" result="BackgroundImageFix"/><feBlend in="SourceGraphic" in2="BackgroundImageFix" result="shape"/><feGaussianBlur stdDeviation="1" result="effect1_foregroundBlur_912_2886"/></filter></defs></svg>