<svg width="26" height="26" viewBox="0 0 26 26" fill="none" xmlns="http://www.w3.org/2000/svg">
<g id="Group 9">
<path id="Vector 44" d="M2 5.25V24H20.806" stroke="#A6A6A6" stroke-width="3" stroke-linecap="round" stroke-linejoin="round"/>
<path id="Subtract" fill-rule="evenodd" clip-rule="evenodd" d="M7.36091 0C6.893 0 6.51367 0.378194 6.51367 0.84472V18.5839C6.51367 19.0504 6.89299 19.4286 7.36091 19.4286H25.153C25.6209 19.4286 26.0002 19.0504 26.0002 18.5839V0.84472C26.0002 0.378194 25.6209 0 25.153 0H7.36091ZM10.844 5.03704C10.4454 5.03704 10.1223 5.3592 10.1223 5.75661C10.1223 6.15403 10.4454 6.47619 10.844 6.47619H21.6699C22.0685 6.47619 22.3916 6.15403 22.3916 5.75661C22.3916 5.3592 22.0685 5.03704 21.6699 5.03704H10.844ZM10.1223 9.3545C10.1223 8.95709 10.4454 8.63492 10.844 8.63492H21.6699C22.0685 8.63492 22.3916 8.95709 22.3916 9.3545C22.3916 9.75191 22.0685 10.0741 21.6699 10.0741H10.844C10.4454 10.0741 10.1223 9.75191 10.1223 9.3545ZM10.844 12.2328C10.4454 12.2328 10.1223 12.555 10.1223 12.9524C10.1223 13.3498 10.4454 13.672 10.844 13.672H18.0613C18.4599 13.672 18.783 13.3498 18.783 12.9524C18.783 12.555 18.4599 12.2328 18.0613 12.2328H10.844Z" fill="#A6A6A6"/>
</g>
</svg>
