<svg xmlns="http://www.w3.org/2000/svg" width="25" height="24" viewBox="0 0 25 24" fill="none">
<path d="M17.622 12.627C17.597 10.094 19.688 8.879 19.781 8.819C18.606 7.099 16.776 6.864 16.124 6.837C14.567 6.679 13.085 7.754 12.294 7.754C11.506 7.754 10.286 6.86 8.99404 6.884C7.29804 6.909 5.73304 7.87 4.85904 9.39C3.09504 12.45 4.40704 16.985 6.12604 19.467C6.96604 20.682 7.96804 22.047 9.28304 21.997C10.549 21.947 11.028 21.178 12.559 21.178C14.09 21.178 14.521 21.998 15.861 21.973C17.224 21.947 18.087 20.734 18.921 19.516C19.886 18.106 20.283 16.741 20.307 16.671C20.277 16.658 17.649 15.651 17.623 12.626L17.622 12.627ZM15.104 5.194C15.802 4.347 16.273 3.172 16.144 2C15.139 2.04 13.92 2.67 13.199 3.515C12.552 4.265 11.985 5.46 12.137 6.609C13.259 6.697 14.405 6.039 15.104 5.194Z" fill="#19191B"/>
</svg>