<svg width="21" height="19" viewBox="0 0 21 19" fill="none" xmlns="http://www.w3.org/2000/svg">
<path fill-rule="evenodd" clip-rule="evenodd" d="M16.212 3.39822C16.254 3.47164 16.3275 3.52408 16.422 3.52408C18.942 3.52408 21 5.5798 21 8.097V14.3271C21 16.8443 18.942 18.9 16.422 18.9H4.578C2.0475 18.9 0 16.8443 0 14.3271V8.097C0 5.5798 2.0475 3.52408 4.578 3.52408C4.662 3.52408 4.746 3.48213 4.7775 3.39822L4.8405 3.27236C4.8767 3.19616 4.91386 3.11789 4.95159 3.03843C5.2202 2.47265 5.51736 1.84673 5.7015 1.47886C6.1845 0.534906 7.0035 0.0104883 8.022 0H12.9675C13.986 0.0104883 14.8155 0.534906 15.2985 1.47886C15.4639 1.80923 15.7158 2.34139 15.9587 2.85431C16.0088 2.96017 16.0585 3.06521 16.107 3.16748L16.212 3.39822ZM15.4453 7.42905C15.4453 7.95347 15.8653 8.373 16.3903 8.373C16.9153 8.373 17.3458 7.95347 17.3458 7.42905C17.3458 6.90463 16.9153 6.47461 16.3903 6.47461C15.8653 6.47461 15.4453 6.90463 15.4453 7.42905ZM8.68843 9.05008C9.18193 8.55713 9.82243 8.29492 10.5049 8.29492C11.1874 8.29492 11.8279 8.55713 12.3109 9.03959C12.7939 9.52206 13.0564 10.1618 13.0564 10.8436C13.0459 12.249 11.9119 13.3923 10.5049 13.3923C9.82243 13.3923 9.18193 13.13 8.69893 12.6476C8.21593 12.1651 7.95343 11.5253 7.95343 10.8436V10.8331C7.94293 10.1723 8.20543 9.53255 8.68843 9.05008ZM13.4063 13.7603C12.6608 14.505 11.6318 14.9665 10.4978 14.9665C9.39528 14.9665 8.36628 14.5365 7.57878 13.7603C6.80178 12.9737 6.37128 11.9459 6.37128 10.8446C6.36078 9.75379 6.79128 8.72593 7.56828 7.9393C8.35578 7.15268 9.39528 6.72266 10.4978 6.72266C11.6003 6.72266 12.6398 7.15268 13.4168 7.92882C14.1938 8.71544 14.6243 9.75379 14.6243 10.8446C14.6138 11.9878 14.1518 13.0157 13.4063 13.7603Z" fill="#3C7960"/>
</svg>
