<svg width="21" height="21" viewBox="0 0 21 21" fill="none" xmlns="http://www.w3.org/2000/svg">
<path fill-rule="evenodd" clip-rule="evenodd" d="M5.94949 21H15.0495C18.6093 21 21 18.503 21 14.7874V6.21256C21 2.49702 18.6093 0 15.0505 0H5.94949C2.39074 0 0 2.49702 0 6.21256V14.7874C0 18.503 2.39074 21 5.94949 21ZM6.81911 9.44922C5.37154 9.44922 4.19531 8.2714 4.19531 6.82422C4.19531 5.37704 5.37154 4.19922 6.81911 4.19922C8.26564 4.19922 9.44291 5.37704 9.44291 6.82422C9.44291 8.2714 8.26564 9.44922 6.81911 9.44922ZM18.7103 13.5801C19.0619 14.4817 18.8792 15.5653 18.5033 16.4582C18.0578 17.5201 17.2046 18.3241 16.1298 18.6752C15.6525 18.8312 15.1521 18.8995 14.6526 18.8995H5.80351C4.92293 18.8995 4.14371 18.6882 3.50492 18.2948C3.10475 18.0478 3.03401 17.4778 3.3307 17.1083C3.82695 16.4907 4.31687 15.8708 4.81101 15.2456C5.75283 14.0493 6.3874 13.7026 7.09271 14.0071C7.37885 14.1328 7.66604 14.3213 7.96168 14.5207C8.74935 15.056 9.84427 15.7917 11.2866 14.9931C12.2736 14.4403 12.846 13.4921 13.3445 12.6664L13.3529 12.6526C13.3882 12.5947 13.4232 12.5367 13.4581 12.479L13.4581 12.4789C13.6257 12.2017 13.791 11.9282 13.9779 11.6763C14.2123 11.3609 15.0813 10.3749 16.2069 11.077C16.9238 11.5191 17.5267 12.1173 18.1718 12.7577C18.4178 13.0026 18.5931 13.2811 18.7103 13.5801Z" fill="#3C7960"/>
</svg>
