<svg width="344" height="492" viewBox="0 0 344 492" fill="none" xmlns="http://www.w3.org/2000/svg">
<path fill-rule="evenodd" clip-rule="evenodd" d="M318.805 0C318.805 3.86599 315.768 7 312.022 7C308.275 7 305.239 3.86599 305.239 0H301.363C301.363 3.86599 298.326 7 294.58 7C290.834 7 287.797 3.86599 287.797 0H283.921C283.921 3.86599 280.884 7 277.138 7C273.392 7 270.355 3.86599 270.355 0H266.479C266.479 3.86599 263.442 7 259.696 7C255.95 7 252.913 3.86599 252.913 0H249.037C249.037 3.86599 246 7 242.254 7C238.508 7 235.471 3.86599 235.471 0H231.593C231.593 3.86599 228.557 7 224.81 7C221.064 7 218.027 3.86599 218.027 0H214.152C214.152 3.86599 211.115 7 207.368 7C203.622 7 200.585 3.86599 200.585 0H196.71C196.71 3.86599 193.673 7 189.927 7C186.18 7 183.144 3.86599 183.144 0H179.268C179.268 3.86599 176.231 7 172.485 7C168.739 7 165.702 3.86599 165.702 0H161.826C161.826 3.86599 158.789 7 155.043 7C151.297 7 148.26 3.86599 148.26 0H144.382C144.382 3.86599 141.345 7 137.599 7C133.853 7 130.816 3.86599 130.816 0H126.94C126.94 3.86599 123.903 7 120.157 7C116.411 7 113.374 3.86599 113.374 0H109.498C109.498 3.86599 106.462 7 102.715 7C98.9691 7 95.9322 3.86599 95.9322 0H92.0566C92.0566 3.86599 89.0197 7 85.2735 7C81.5273 7 78.4904 3.86599 78.4904 0H74.6147C74.6147 3.86599 71.5778 7 67.8316 7C64.0854 7 61.0485 3.86599 61.0485 0H57.1709C57.1709 3.86599 54.134 7 50.3878 7C46.6416 7 43.6047 3.86599 43.6047 0H39.729C39.729 3.86599 36.6921 7 32.9459 7C29.1997 7 26.1628 3.86599 26.1628 0H4.84496C4.84496 2.76139 2.67581 4.99994 0 5V487C2.67581 487 4.84496 489.239 4.84496 492H26.1628C26.1628 488.134 29.1997 485 32.9459 485C36.6921 485 39.729 488.134 39.729 492H43.6047C43.6047 488.134 46.6416 485 50.3878 485C54.134 485 57.1709 488.134 57.1709 492H61.0485C61.0485 488.134 64.0854 485 67.8316 485C71.5778 485 74.6147 488.134 74.6147 492H78.4904C78.4904 488.134 81.5273 485 85.2735 485C89.0197 485 92.0566 488.134 92.0566 492H95.9322C95.9322 488.134 98.9691 485 102.715 485C106.462 485 109.498 488.134 109.498 492H113.374C113.374 488.134 116.411 485 120.157 485C123.903 485 126.94 488.134 126.94 492H130.816C130.816 488.134 133.853 485 137.599 485C141.345 485 144.382 488.134 144.382 492H148.26C148.26 488.134 151.297 485 155.043 485C158.789 485 161.826 488.134 161.826 492H165.702C165.702 488.134 168.739 485 172.485 485C176.231 485 179.268 488.134 179.268 492H183.144C183.144 488.134 186.18 485 189.927 485C193.673 485 196.71 488.134 196.71 492H200.585C200.585 488.134 203.622 485 207.368 485C211.115 485 214.152 488.134 214.152 492H218.027C218.027 488.134 221.064 485 224.81 485C228.557 485 231.593 488.134 231.593 492H235.471C235.471 488.134 238.508 485 242.254 485C246 485 249.037 488.134 249.037 492H252.913C252.913 488.134 255.95 485 259.696 485C263.442 485 266.479 488.134 266.479 492H270.355C270.355 488.134 273.392 485 277.138 485C280.884 485 283.921 488.134 283.921 492H287.797C287.797 488.134 290.834 485 294.58 485C298.326 485 301.363 488.134 301.363 492H305.239C305.239 488.134 308.275 485 312.022 485C315.768 485 318.805 488.134 318.805 492H339.155C339.155 489.239 341.324 487 344 487V5C341.324 5 339.155 2.76142 339.155 0H318.805Z" fill="#F2F6F3"/>
</svg>
