<svg width="40" height="60" viewBox="0 0 40 60" fill="none" xmlns="http://www.w3.org/2000/svg">
<g id="Vector">
<path d="M17.7035 12.7569H20.3484V16.9888H17.7035V12.7569Z" fill="#5D8866"/>
<path d="M17.1651 14.9592C17.1704 14.8335 17.264 14.7266 17.3884 14.7072L21.0783 14.1306C21.2462 14.1044 21.3948 14.2424 21.3851 14.4121C21.1044 19.3352 22.4214 22.4032 22.8381 27.2825C22.8512 27.436 22.7297 27.5685 22.5757 27.5685H18.0555C17.9277 27.5685 17.8182 27.4774 17.7955 27.3517C17.3677 24.984 16.8772 21.7124 17.1651 14.9592Z" fill="#5D8866"/>
<path d="M4.83322 39.8317C4.57765 38.392 5.6684 37.0644 7.13035 37.0357L35.2359 36.4846C36.7147 36.4556 37.8617 37.768 37.6349 39.2296L34.8115 57.4245C34.6315 58.5844 33.633 59.4399 32.4592 59.4399H10.3091C9.15488 59.4399 8.16699 58.612 7.96526 57.4756L4.83322 39.8317Z" fill="#BB9B74"/>
<path d="M19.2607 13.8155C17.7836 16.374 12.1193 16.1459 7.38827 13.4145C2.65725 10.683 0.356755 6.72 1.8339 4.1615C3.31105 1.60301 8.63805 1.90655 13.3691 4.638C18.1001 7.36946 20.7379 11.257 19.2607 13.8155Z" fill="#5D8866"/>
<path d="M35.8835 1.74789C37.3823 4.34394 34.2438 9.83499 29.3735 12.6469C24.5032 15.4587 19.8028 15.499 18.304 12.903C16.8051 10.3069 19.8356 5.15242 24.7059 2.34054C29.5762 -0.471339 34.3847 -0.848152 35.8835 1.74789Z" fill="#5D8866"/>
<path d="M0.0781986 29.7303C0.152498 28.4717 1.15405 27.4734 2.40867 27.3487C15.8892 26.0085 24.1512 25.775 37.4413 26.1604C38.9394 26.2038 40.0981 27.4879 39.9934 28.983L39.4292 37.0441C39.3331 38.4159 38.2019 39.4852 36.8269 39.5041L2.99094 39.9676C1.65163 39.9859 0.503679 38.9998 0.350258 37.6692C0.0218447 34.8209 -0.0913954 32.6033 0.0781986 29.7303Z" fill="#BB9B74"/>
<path d="M11.6858 41.0562C11.7353 40.0941 12.5362 39.3487 13.4995 39.3412L28.9562 39.221C29.9951 39.2129 30.8373 40.061 30.8219 41.0998L30.7455 46.2428C30.7305 47.2545 29.9061 48.0667 28.8943 48.0667H13.5401C12.5648 48.0667 11.7535 47.3099 11.7027 46.336C11.604 44.4461 11.5883 42.9503 11.6858 41.0562Z" fill="#E3D4C1"/>
</g>
</svg>
